<?xml version="1.0" standalone="no"?><!DOCTYPE svg PUBLIC "-//W3C//DTD SVG 1.1//EN" "http://www.w3.org/Graphics/SVG/1.1/DTD/svg11.dtd"><svg xmlns:xlink="http://www.w3.org/1999/xlink" xmlns="http://www.w3.org/2000/svg" version="1.1" width="200" height="200" viewBox="0 0 200 200"><g class="transform-group"><g transform="scale(0.1953125, 0.1953125)"><path d="M789.060665 85.576027C754.17411 41.967834 701.845301 74.673723 680.041716 96.478332c-21.804608 21.803585-8.721639 58.870806-8.721639 58.870806l37.06722 98.118692L126.218168 427.89958l39.246863 102.480023c0 0 30.525224-13.081946 43.608194-4.362354 13.08297 8.722662 13.08297 30.526247 13.08297 30.526247l-41.427528 37.066197L152.383084 720.072943l-47.969525 32.707936c0 0-34.886555 8.720615-39.246863 58.870806-4.360308 50.149167 28.345582 69.77311 28.345582 69.77311l23.984251-10.903328 34.886555-6.540973-37.06722 89.397053 242.025219-2.181689c0 0-37.065174-67.592444-37.065174-82.855056 0-15.263635 13.08297-17.442254 39.247886-50.149167s-43.609217-45.787836-61.052494-47.969525c-17.443277-2.180666-63.232137 6.54302-63.232137 6.54302l37.06722-178.796152c0 0 23.984251-32.704866 34.887578-56.688093 10.900258-23.984251 6.540973-23.984251-6.54302-26.163893-13.08297-2.181689-8.720615-21.805632-8.720615-21.805632l8.720615-15.263635 198.418049-56.69014 2.178619 10.901281L376.964002 959.918519l37.06722-4.360308 8.721639-41.428551 141.726885 2.181689 4.359284 41.425482 26.164916-4.359284 0-37.06722 45.788859-17.443277L651.696134 955.558212l32.706913 0L579.743382 421.358607l0-17.444301 170.07042-47.967478c0 0 165.711136 311.798329 178.793082 311.798329 13.08297 0 26.164916 13.080923 30.526247-172.251086C963.492416 310.157969 823.948243 129.184221 789.060665 85.576027zM211.252867 774.585487l-41.427528-39.247886 30.525224-115.561969 41.428551-8.722662L211.252867 774.585487zM527.411503 469.328132l15.262612 189.695387-63.23009 2.180666L527.411503 469.328132zM475.082694 683.006745l69.775156 0 6.540973 93.758384-98.117668 0L475.082694 683.006745zM427.113169 887.964744l21.804608-82.85608 104.660688 2.180666 4.361331 85.035722L427.113169 887.964744zM638.613164 870.521466l-50.15019 21.804608-6.541997-87.215364 41.428551-17.443277L638.613164 870.521466zM618.990245 763.682159l-39.246863 21.803585-6.541997-104.659665 26.163893 0L618.990245 763.682159zM595.003947 656.842853l-23.983227 0-13.081946-178.794106L595.003947 656.842853zM778.159384 225.121224c-10.840906 0-19.623943-8.783037-19.623943-19.623943 0-10.838859 8.783037-19.623943 19.623943-19.623943 10.838859 0 19.623943 8.785084 19.623943 19.623943C797.783327 216.338187 788.998243 225.121224 778.159384 225.121224zM804.3243 287.263539c0-10.238179 8.29492-18.534122 18.534122-18.534122 10.237155 0 18.531052 8.29492 18.531052 18.534122 0 10.237155-8.293897 18.532075-18.531052 18.532075C812.61922 305.796638 804.3243 297.501718 804.3243 287.263539zM834.849524 373.389082c0-10.838859 8.785084-19.623943 19.624966-19.623943 10.838859 0 19.623943 8.78406 19.623943 19.623943 0 10.839883-8.785084 19.62292-19.623943 19.62292C843.634608 393.013025 834.849524 384.229988 834.849524 373.389082zM882.819049 493.311359c-9.635451 0-17.443277-7.806803-17.443277-17.442254s7.807826-17.444301 17.443277-17.444301c9.630335 0 17.443277 7.80885 17.443277 17.444301S892.449383 493.311359 882.819049 493.311359z" fill="#ea8010"></path></g></g></svg>